<svg width="23" height="23" viewBox="0 0 23 23" fill="none" xmlns="http://www.w3.org/2000/svg">
<g clip-path="url(#clip0_111_43)">
<path d="M4 1.25H19C19.4142 1.25 19.75 1.58579 19.75 2V21C19.75 21.4142 19.4142 21.75 19 21.75H4C3.58579 21.75 3.25 21.4142 3.25 21V2C3.25 1.58579 3.58579 1.25 4 1.25Z" stroke="black" stroke-width="2.5"/>
<path fill-rule="evenodd" clip-rule="evenodd" d="M18.6041 2.48379L9.60414 4.30109C8.671 4.48952 8 5.30955 8 6.26153V21C8 22.1046 8.89543 23 10 23H19C20.1046 23 21 22.1046 21 21V4.44422C21 3.18062 19.8427 2.23368 18.6041 2.48379ZM11.75 16.5C12.7165 16.5 13.5 15.7165 13.5 14.75C13.5 13.7835 12.7165 13 11.75 13C10.7835 13 10 13.7835 10 14.75C10 15.7165 10.7835 16.5 11.75 16.5Z" fill="black"/>
</g>
<defs>
<clipPath id="clip0_111_43">
<rect width="23" height="23" rx="1" fill="white"/>
</clipPath>
</defs>
</svg>
